# Blender v3.0.1 OBJ File: 'Assety_SimpCrawler.blend'
# www.blender.org
mtllib wall0.mtl
o Column_1_Cube.002
v 1.500000 0.420727 0.100000
v -1.500000 0.420727 0.100000
v -1.500000 0.420727 0.152403
v 1.500000 0.420727 0.152403
v -1.500000 0.420727 -0.100000
v -1.500000 2.081233 -0.100000
v 1.500000 2.081233 -0.100000
v 1.500000 0.420727 -0.100000
v 1.500000 2.081233 0.100000
v -1.500000 2.081234 0.100000
v 1.500000 2.081233 0.152403
v -1.500000 2.081234 0.152403
v -1.500000 2.081233 -0.152403
v 1.500000 2.081233 -0.152403
v -1.500000 2.119898 0.165630
v -1.500000 0.000980 0.181371
v -1.500000 0.382063 0.165630
v -1.500000 0.382063 -0.165630
v -1.500000 0.000980 -0.181371
v 1.500000 0.000980 0.181371
v 1.500000 0.382063 0.165630
v -1.500000 2.119897 -0.165630
v 1.500000 0.000980 -0.181371
v 1.500000 0.382063 -0.165630
v 1.500000 2.119897 0.165630
v 1.500000 2.462316 0.179774
v -1.500000 2.462316 0.179774
v -1.500000 2.462316 -0.179774
v 1.500000 2.462316 -0.179774
v 1.500000 2.119897 -0.165630
v 1.500000 2.500980 0.169742
v 1.500000 2.500980 -0.169742
v -1.500000 2.500980 0.169742
v -1.500000 2.500980 -0.169742
v -1.500000 0.420727 -0.152403
v 1.500000 0.420727 -0.152403
vt 0.892138 0.976665
vt 0.892140 0.148506
vt 0.900513 0.148506
vt 0.900513 0.976665
vt 0.889741 0.974561
vt 0.624425 0.974560
vt 0.624427 0.146400
vt 0.889742 0.146402
vt 0.626823 0.976663
vt 0.626825 0.148504
vt 0.618450 0.976663
vt 0.618450 0.148504
vt 0.616052 0.974560
vt 0.616052 0.146400
vt 0.891770 0.022430
vt 0.898211 0.018078
vt 0.891770 0.039674
vt 0.545227 0.012898
vt 0.608711 0.018077
vt 0.608711 0.127085
vt 0.545227 0.132265
vt 0.969821 0.976616
vt 0.908879 0.976616
vt 0.908879 0.148456
vt 0.969821 0.148456
vt 0.891770 0.122732
vt 0.891770 0.105488
vt 0.898211 0.127085
vt 0.961694 0.132265
vt 0.898211 0.127085
vt 0.898211 0.018077
vt 0.961694 0.012898
vt 0.891770 0.105488
vt 0.615151 0.105488
vt 0.615151 0.039675
vt 0.891770 0.039674
vt 0.615152 0.039674
vt 0.615152 0.105488
vt 0.610084 0.976713
vt 0.555325 0.976713
vt 0.555325 0.148553
vt 0.610084 0.148553
vt 0.607686 0.974609
vt 0.552928 0.974609
vt 0.552928 0.146450
vt 0.607686 0.146450
vt 0.967423 0.974512
vt 0.906482 0.974512
vt 0.906482 0.146353
vt 0.967423 0.146353
vt 0.545227 0.016725
vt 0.551668 0.013424
vt 0.551668 0.131739
vt 0.545227 0.128438
vt 0.546959 0.976765
vt 0.546959 0.148606
vt 0.544561 0.974662
vt 0.544561 0.146503
vt 0.898115 0.974561
vt 0.898115 0.146402
vt 0.891770 0.122733
vt 0.615151 0.122733
vt 0.608711 0.127085
vt 0.608710 0.018078
vt 0.955253 0.131739
vt 0.955253 0.013423
vt 0.961694 0.016724
vt 0.961694 0.128438
vt 0.615152 0.122733
vt 0.615152 0.022430
vt 0.615151 0.022430
vt 0.891770 0.022430
vn 0.0000 1.0000 0.0000
vn 0.0000 0.0000 -1.0000
vn 0.0000 -0.0000 1.0000
vn -0.0000 -1.0000 0.0000
vn -1.0000 -0.0000 0.0000
vn 0.0000 0.0413 0.9991
vn 1.0000 0.0000 0.0000
vn -0.0000 -0.0413 0.9991
vn 0.0000 -0.0413 -0.9991
vn 0.0000 0.0413 -0.9991
vn 0.0000 0.2512 0.9679
vn 0.0000 0.2512 -0.9679
vn 0.0000 0.3237 -0.9462
vn 0.0000 -0.3237 -0.9462
vn 0.0000 0.3237 0.9462
vn -0.0000 -0.3237 0.9462
usemtl Material.002
s 1
f 1/1/1 2/2/1 3/3/1 4/4/1
f 5/5/2 6/6/2 7/7/2 8/8/2
f 1/1/3 9/9/3 10/10/3 2/2/3
f 10/10/4 9/9/4 11/11/4 12/12/4
f 7/7/4 6/6/4 13/13/4 14/14/4
f 12/15/5 15/16/5 10/17/5
f 16/18/5 17/19/5 18/20/5 19/21/5
f 20/22/6 21/23/6 17/24/6 16/25/6
f 13/26/5 6/27/5 22/28/5
f 23/29/7 24/30/7 21/31/7 20/32/7
f 8/33/7 7/34/7 9/35/7 1/36/7
f 2/37/5 10/17/5 6/27/5 5/38/5
f 25/39/8 26/40/8 27/41/8 15/42/8
f 22/43/9 28/44/9 29/45/9 30/46/9
f 19/47/10 18/48/10 24/49/10 23/50/10
f 31/51/7 26/52/7 29/53/7 32/54/7
f 31/55/11 33/56/11 27/41/11 26/40/11
f 34/57/12 32/58/12 29/45/12 28/44/12
f 35/59/13 36/60/13 24/49/13 18/48/13
f 22/43/14 30/46/14 14/14/14 13/13/14
f 4/4/15 3/3/15 17/24/15 21/23/15
f 25/39/16 15/42/16 12/12/16 11/11/16
f 5/5/1 8/8/1 36/60/1 35/59/1
f 36/61/7 8/33/7 24/30/7
f 14/62/7 30/63/7 7/34/7
f 29/53/7 26/52/7 25/64/7 30/63/7
f 28/65/5 27/66/5 33/67/5 34/68/5
f 22/28/5 15/16/5 27/66/5 28/65/5
f 18/20/5 5/38/5 35/69/5
f 10/17/5 15/16/5 22/28/5 6/27/5
f 3/70/5 2/37/5 17/19/5
f 2/37/5 5/38/5 18/20/5 17/19/5
f 11/71/7 9/35/7 25/64/7
f 9/35/7 7/34/7 30/63/7 25/64/7
f 21/31/7 1/36/7 4/72/7
f 8/33/7 1/36/7 21/31/7 24/30/7
